# xmcd
#
# Track frame offsets:
#	150
#	13225
#	29147
#	43220
#	56685
#	70270
#	83875
#	96507
#	107787
#	122037
#	137112
#	148112
#	163830
#	177212
#	190532
#	221242
#
# Disc length: 2962 seconds
#
# Revision: 1
# Processed by: cddbd v1.5.2PL0 Copyright (c) Steve Scherf et al.
# Submitted via: audiograbber 1.83.01
#
DISCID=fa0b9010
DTITLE=Various Artist - SC7540
DYEAR=1900
DGENRE=KARAOKE
TTITLE0=MURRAY, ANNE - JUST ANOTHER WOMAN IN LOVE
TTITLE1=MURRAY, ANNE - I JUST FALL IN LOVE AGAIN
TTITLE2=NEWTON, JUICE - QUEEN OF HEARTS
TTITLE3=CLINE, PATSY - SO WRONG
TTITLE4=WILLIAMS, DON - I BELIEVE IN YOU
TTITLE5=DENVER, JOHN - ROCKY MOUNTAIN HIGH
TTITLE6=WILLIAMS, HANK - I'M SO LONESOME I COULD CRY
TTITLE7=FENDER, FREDDY - WASTED DAYS AND WASTED NIGHTS
TTITLE8=GIBSON, DON - OH LONESOME ME
TTITLE9=PRESTON, JOHNNY - RUNNING BEAR
TTITLE10=MILLER, ROGER - DANG ME
TTITLE11=HAGGARD, MERLE - MAMA TRIED
TTITLE12=LEE, JOHNNY - LOOKIN' FOR LOVE
TTITLE13=MILSAP, RONNIE - IT WAS ALMOST LIKE A SONG
TTITLE14=CAMPBELL, GLEN - BY THE TIME I GET TO PHOENIX
TTITLE15=Unknown - Data Track
EXTD=Sound Choice Karaoke Disc # 7540, 15 tracks
EXTT0=
EXTT1=
EXTT2=
EXTT3=
EXTT4=
EXTT5=
EXTT6=
EXTT7=
EXTT8=
EXTT9=
EXTT10=
EXTT11=
EXTT12=
EXTT13=
EXTT14=
EXTT15=
PLAYORDER=
